:SAMPLES-PER-SECOND 30
:FULLY-SPECIFIED
:DEGREES
1025
root  -23.8273 37.1266 -2.11925 137.481 75.9251 132.622
RightUpLeg  -35.4691 -19.2495 -15.0549
RightLeg  30.6916 1.90864 0.98717
RightFoot  -12.2455 0.0212048 13.2635
RightToes  -1.81608e-008 0 -3.6325e-017
Spine  32.0855 -4.96326 -1.22119
Spine1  -10.5918 -6.05812 9.63503
HEad  -47.03 -2.96609 -6.20995
LeftShoulder1  0.44005 0.488509 -6.94266
LeftArm  -0.488796 -57.6202 -57.5423
LeftForeArm  -19.4677 -25.2874 -6.34778
LeftHand  -0.171356 7.63778 -6.22698
RightShoulder  0.130462 -2.74023 10.2143
RightArm  -23.2098 30.6456 26.1943
RightForeArm  -21.1204 62.4792 24.3696
RightHand  -0.25181 2.54199 -3.87424
LeftUpLeg  3.09886 14.8432 20.63
LeftLeg  5.38657 -0.603432 0.559691
LeftFoot  -4.19644 0.753331 -11.6555
LeftToes  1.81866e-011 -6.13092e-011 2.52013e-011
1026
root  -24.449 37.0281 -2.42254 142.564 75.5642 138.18
RightUpLeg  -34.9985 -20.0968 -15.0114
RightLeg  29.5479 1.75362 0.845301
RightFoot  -11.9139 -0.010844 14.0217
RightToes  -1.81608e-008 0 -3.6325e-017
Spine  32.6542 -5.26325 -1.15055
Spine1  -11.9868 -6.21948 9.99771
HEad  -47.1116 -3.53335 -6.35834
LeftShoulder1  0.497493 0.122487 -7.07839
LeftArm  -0.510908 -57.5356 -57.5635
LeftForeArm  -19.6846 -25.0367 -6.29855
LeftHand  -0.170771 7.52858 -6.52427
RightShoulder  0.187964 -2.40467 10.0645
RightArm  -23.039 29.7091 26.2559
RightForeArm  -22.4644 62.7713 24.8027
RightHand  -0.35076 3.12361 -5.02625
LeftUpLeg  3.45186 15.0776 21.2627
LeftLeg  5.65697 0.786768 0.830137
LeftFoot  -6.02815 0.507725 -10.1548
LeftToes  1.81866e-011 -6.13092e-011 2.52013e-011
1027
root  -25.1096 36.8931 -2.76732 147.791 75.1665 144.089
RightUpLeg  -34.4379 -20.3328 -15.0846
RightLeg  28.6605 1.20489 0.482982
RightFoot  -11.4223 -0.0678185 14.3995
RightToes  -1.81608e-008 0 -3.6325e-017
Spine  33.1182 -5.38657 -1.30204
Spine1  -13.0158 -6.34892 10.8503
HEad  -47.3813 -3.92279 -6.53321
LeftShoulder1  0.513796 0.0890091 -7.4565
LeftArm  0.721506 -57.7297 -58.2425
LeftForeArm  -20.2849 -24.7965 -6.26844
LeftHand  -0.185363 7.85077 -6.2677
RightShoulder  0.119009 -2.81607 10.5178
RightArm  -22.7427 29.605 26.1703
RightForeArm  -21.7653 62.7021 24.6718
RightHand  -0.331192 3.7428 -4.46801
LeftUpLeg  3.82605 15.4378 22.0768
LeftLeg  6.19861 1.39707 0.909069
LeftFoot  -7.10539 0.371073 -8.90022
LeftToes  1.81866e-011 -6.13092e-011 2.52013e-011
1028
root  -25.7938 36.7185 -3.16227 152.169 74.612 149.338
RightUpLeg  -33.7869 -20.8487 -15.3378
RightLeg  27.8421 1.02073 0.358706
RightFoot  -10.7596 -0.148501 14.721
RightToes  -1.81608e-008 0 -3.6325e-017
Spine  33.243 -5.63951 -1.52675
Spine1  -13.7338 -6.59318 10.8747
HEad  -47.4442 -4.17018 -6.1695
LeftShoulder1  0.560964 -0.259587 -7.29349
LeftArm  1.30358 -57.4449 -59.1026
LeftForeArm  -20.0176 -24.6022 -6.21208
LeftHand  -0.175947 7.87512 -5.79799
RightShoulder  0.100546 -2.94104 11.2725
RightArm  -21.8358 28.6064 26.0669
RightForeArm  -22.8249 62.8321 24.9009
RightHand  -0.37934 4.56362 -4.7146
LeftUpLeg  4.3538 15.335 22.4292
LeftLeg  6.6281 1.57189 1.20639
LeftFoot  -7.34438 0.347916 -8.88481
LeftToes  1.81866e-011 -6.13092e-011 2.52013e-011
1029
root  -26.5255 36.551 -3.5913 154.473 74.2923 152.64
RightUpLeg  -32.9826 -20.7148 -15.9345
RightLeg  26.6684 0.627433 0.117453
RightFoot  -9.87731 -0.256584 14.7324
RightToes  -1.81608e-008 0 -3.6325e-017
Spine  33.0789 -5.54024 -2.54292
Spine1  -13.9582 -6.7378 10.9822
HEad  -47.8021 -3.81843 -6.10918
LeftShoulder1  0.573622 -0.244283 -7.74083
LeftArm  2.67896 -57.3519 -60.0437
LeftForeArm  -19.816 -24.3659 -6.14884
LeftHand  -0.180308 7.8178 -6.13966
RightShoulder  0.113483 -2.88729 11.851
RightArm  -21.52 26.9927 26.461
RightForeArm  -21.8358 63.4129 25.5259
RightHand  -0.372985 4.01737 -4.82079
LeftUpLeg  5.56625 14.9531 22.5609
LeftLeg  5.60388 1.61957 1.50585
LeftFoot  -6.51811 0.640383 -13.5052
LeftToes  1.81866e-011 -6.13092e-011 2.52013e-011
1030
root  -27.3089 36.4692 -4.02172 155.225 73.8695 154.337
RightUpLeg  -31.9613 -20.6872 -16.8303
RightLeg  24.8893 0.419803 -0.00410222
RightFoot  -9.26062 -0.328284 14.5572
RightToes  -1.81608e-008 0 -3.6325e-017
Spine  32.1962 -5.18151 -4.59107
Spine1  -13.0176 -7.04299 11.5168
HEad  -48.9232 -3.63226 -5.97638
LeftShoulder1  0.586838 -0.303411 -7.86611
LeftArm  2.7389 -56.7503 -60.9171
LeftForeArm  -18.651 -24.5358 -6.13815
LeftHand  -0.18389 7.77954 -6.4166
RightShoulder  0.104983 -2.9535 12.8529
RightArm  -21.3869 25.4158 26.5157
RightForeArm  -18.4067 64.1929 26.2536
RightHand  -0.209045 3.14058 -3.09892
LeftUpLeg  6.62116 14.9851 22.9898
LeftLeg  3.06644 0.310663 1.12509
LeftFoot  -3.8648 1.54359 -23.1393
LeftToes  1.81866e-011 -6.13092e-011 2.52013e-011
1031
root  -28.1118 36.5452 -4.43452 154.85 73.1965 154.224
RightUpLeg  -30.9387 -20.3815 -18.0555
RightLeg  21.9556 0.113528 -0.174238
RightFoot  -9.38566 -0.302526 13.8022
RightToes  -1.81608e-008 0 -3.6325e-017
Spine  30.9791 -4.75588 -7.61981
Spine1  -12.3218 -7.49149 12.5457
HEad  -50.0565 -3.50838 -5.9047
LeftShoulder1  0.612492 -0.370036 -8.29843
LeftArm  3.16881 -55.4171 -60.8484
LeftForeArm  -18.2746 -25.3834 -6.31835
LeftHand  -0.199821 8.15409 -6.11857
RightShoulder  0.0580352 -3.20953 14.2765
RightArm  -20.1527 23.6243 27.4811
RightForeArm  -17.389 65.1577 27.4988
RightHand  -0.256482 3.47785 -3.60753
LeftUpLeg  5.77681 16.3027 23.0935
LeftLeg  3.19135 -2.87739 -1.09132
LeftFoot  -2.3806 2.13566 -26.7441
LeftToes  1.81866e-011 -6.13092e-011 2.52013e-011
1032
root  -28.9204 36.8115 -4.86698 154.927 72.4717 153.906
RightUpLeg  -29.6696 -21.1125 -18.8166
RightLeg  17.6249 0.157296 -0.145209
RightFoot  -11.318 -0.081625 12.0271
RightToes  -1.81608e-008 0 -3.6325e-017
Spine  29.2355 -4.63657 -10.4968
Spine1  -11.7897 -8.08615 13.5096
HEad  -50.871 -3.42336 -5.45329
LeftShoulder1  0.688007 -0.570447 -9.51471
LeftArm  3.92469 -53.9702 -59.3498
LeftForeArm  -17.9215 -26.0815 -6.46706
LeftHand  -0.185315 7.75415 -6.52051
RightShoulder  0.0344871 -3.32468 15.2471
RightArm  -18.4563 21.2804 28.9996
RightForeArm  -15.9546 66.2633 29.0299
RightHand  -0.281091 3.16493 -4.04669
LeftUpLeg  4.39864 16.1377 21.5449
LeftLeg  2.78308 -2.35861 -1.68374
LeftFoot  -2.6709 2.22689 -28.6228
LeftToes  1.81866e-011 -6.13092e-011 2.52013e-011
